<svg version="1.1" id="Layer_1" xmlns="http://www.w3.org/2000/svg" xmlns:xlink="http://www.w3.org/1999/xlink" x="0px" y="0px"
	width="139.467" height="31.797" viewBox="0 0 556 116" enable-background="new 0 0 556 116" xml:space="preserve">
<path fill="#FBFBFC" opacity="1.000000" stroke="none" 
	d="
M413.000000,117.000000 
	C275.333344,117.000000 138.166718,117.000000 1.000055,117.000000 
	C1.000037,78.333366 1.000037,39.666729 1.000018,1.000071 
	C186.333267,1.000047 371.666534,1.000047 556.999878,1.000024 
	C556.999878,39.666595 556.999878,78.333191 556.999939,116.999893 
	C509.166656,117.000000 461.333344,117.000000 413.000000,117.000000 
M548.195435,43.200928 
	C547.496216,42.443951 546.796997,41.686974 545.858704,40.283707 
	C541.611023,37.561569 537.679077,33.944397 533.047546,32.310081 
	C524.335632,29.235973 515.500366,29.811697 507.117523,34.430477 
	C497.632507,39.656521 493.785156,48.457752 492.400513,58.353447 
	C491.162445,67.201439 492.268860,75.941605 497.775482,83.561020 
	C506.051147,95.011948 517.163452,98.273438 530.873169,96.321564 
	C538.793213,95.193977 545.006775,92.122215 550.375244,85.992775 
	C548.374390,83.603737 546.729980,80.805008 544.321655,79.061386 
	C542.742188,77.917847 539.286865,77.247452 538.006836,78.186050 
	C533.241272,81.680573 528.099976,81.497749 522.820740,81.009926 
	C517.292725,80.499100 513.689636,76.278175 513.477661,69.874344 
	C525.954468,69.874344 538.417358,69.874344 551.732361,69.940742 
	C552.125549,65.016411 552.745239,60.094044 552.788086,55.166656 
	C552.802979,53.457237 551.387878,51.735378 550.499268,49.489971 
	C550.466797,49.128899 550.434387,48.767822 550.661987,47.721218 
	C549.811584,46.453251 548.961182,45.185284 548.010986,43.944939 
	C548.010986,43.944939 548.096802,43.886757 548.195435,43.200928 
M120.713455,60.313129 
	C120.702942,62.711346 120.692436,65.109566 120.257477,68.312721 
	C121.028770,70.935463 121.800056,73.558205 122.778778,76.779266 
	C122.845024,77.196053 122.911263,77.612831 122.844200,78.712563 
	C123.469749,79.519836 124.095299,80.327110 124.960266,81.816292 
	C126.883095,84.182396 128.513412,86.885498 130.781326,88.854034 
	C138.928986,95.926140 148.329254,97.786270 159.057831,96.355843 
	C167.279312,95.259689 173.777954,92.217171 179.092819,85.856659 
	C176.794113,83.372490 174.382324,81.327271 172.704529,78.795616 
	C171.017136,76.249512 169.282059,76.446831 167.433197,77.933029 
	C162.084045,82.232918 155.951141,81.550079 149.883469,80.782623 
	C145.544449,80.233810 142.046310,75.187698 142.216873,69.997925 
	C148.503220,69.997925 154.809219,69.997925 161.115234,69.997925 
	C167.558304,69.997925 174.001373,69.997925 180.806656,69.997925 
	C180.806656,65.043053 181.380936,60.665142 180.680405,56.501736 
	C179.437164,49.113003 177.219681,42.131290 170.986252,36.903389 
	C158.973816,26.828680 133.175858,27.930925 124.168587,46.000576 
	C123.737396,47.328754 123.306206,48.656933 122.797577,50.601444 
	C122.714081,51.006226 122.630585,51.411007 121.875641,52.075298 
	C121.479515,54.555481 121.083397,57.035660 120.713455,60.313129 
M311.721710,47.013508 
	C314.800537,43.583538 318.095551,43.291679 321.983215,45.859409 
	C326.259796,48.684048 325.082855,52.571049 324.885071,55.952843 
	C317.889221,56.959995 311.258118,57.716888 304.705231,58.904980 
	C295.194702,60.629326 290.823486,66.081268 289.562592,75.632339 
	C287.693390,89.791046 300.525940,98.898605 313.960083,96.187279 
	C318.127930,95.346107 322.120300,93.635208 325.880157,92.423340 
	C327.157135,93.534615 328.457367,95.647270 329.891022,95.742073 
	C335.767975,96.130692 341.685577,95.904373 347.442932,95.904373 
	C346.801971,91.928253 345.920746,88.712776 345.828979,85.474922 
	C345.541534,75.333344 345.802307,65.172554 345.366425,55.040039 
	C345.024628,47.095222 343.458221,39.460339 335.656158,34.935150 
	C325.186462,28.862736 314.167236,29.235905 303.504761,33.419273 
	C298.220642,35.492462 292.719452,38.904083 291.104919,46.055462 
	C289.151062,50.822823 289.859650,52.440517 294.308075,52.642757 
	C298.457611,52.831409 302.624603,52.767746 306.779755,52.657513 
	C309.855103,52.575924 311.891174,51.257561 311.721710,47.013508 
M103.364990,95.947884 
	C105.510208,95.947884 107.655426,95.947884 109.851067,95.947884 
	C110.139771,94.779922 110.504684,93.987892 110.506363,93.195091 
	C110.535561,79.369446 110.899063,65.527534 110.310425,51.726681 
	C110.102615,46.854603 108.344620,41.622658 105.893730,37.360416 
	C100.701828,28.331362 83.908783,29.116554 77.268295,34.479469 
	C75.396263,35.991333 73.535492,37.517139 71.575111,39.113453 
	C67.666801,33.313103 62.689682,30.573977 55.693081,30.615784 
	C48.985367,30.655867 43.464733,32.855118 37.965073,37.728531 
	C36.187279,29.181778 29.914288,31.424604 24.614775,31.278992 
	C24.115398,31.265268 23.603481,31.347681 23.117428,31.266085 
	C19.138025,30.598036 17.870718,32.332436 17.899426,36.244305 
	C18.037554,55.067390 17.958229,73.892036 17.979738,92.716103 
	C17.980818,93.660095 18.202528,94.603836 18.323114,95.560455 
	C24.881865,95.560455 31.108717,95.560455 37.754601,95.560455 
	C37.754601,93.380768 37.753918,91.584053 37.754711,89.787338 
	C37.760098,77.626678 37.719589,65.465721 37.798172,53.305531 
	C37.823341,49.410782 41.004795,46.276661 44.898838,46.043736 
	C49.015617,45.797478 52.985386,45.798222 53.427467,51.456848 
	C53.633007,54.087765 54.292347,56.699913 54.320175,59.325077 
	C54.427876,69.485611 54.344658,79.648041 54.381519,89.809586 
	C54.388561,91.749748 54.617565,93.689102 54.728580,95.390068 
	C61.641979,95.390068 68.020729,95.390068 74.598656,95.390068 
	C74.598656,81.181305 74.569939,67.529182 74.612328,53.877281 
	C74.630096,48.154346 76.895470,46.066174 82.865944,46.018238 
	C89.055161,45.968540 90.149384,46.952354 90.247314,53.630974 
	C90.384087,62.957771 90.297676,72.287857 90.304169,81.616539 
	C90.307365,86.205276 90.304726,90.794014 90.304726,95.947884 
	C94.801064,95.947884 98.602104,95.947884 103.364990,95.947884 
M213.343307,30.782587 
	C200.760117,29.192316 192.879410,39.226624 190.156738,46.086487 
	C186.628189,54.976795 187.093857,64.368179 188.235062,73.494667 
	C189.135498,80.695755 191.750961,87.719429 198.185547,92.299469 
	C203.256195,95.908691 208.743942,98.306725 215.081406,96.217316 
	C219.587967,94.731537 223.960831,92.840118 228.523407,91.079552 
	C228.719452,92.341194 228.983597,94.040955 229.230133,95.627541 
	C235.102310,95.627541 240.535355,95.627541 246.050598,95.627541 
	C246.050598,65.296776 246.050598,35.273514 246.050598,5.302772 
	C239.499924,5.302772 233.301575,5.302772 226.733658,5.302772 
	C226.733658,15.520067 226.733658,25.267845 226.733658,35.152164 
	C222.312119,33.612446 218.283188,32.209438 213.343307,30.782587 
M482.883484,64.500916 
	C482.883514,62.002705 483.114502,59.478474 482.836548,57.011578 
	C482.215393,51.498295 482.294098,45.647945 480.357758,40.598255 
	C476.993225,31.823830 463.282990,27.645390 454.658386,31.950533 
	C451.264618,33.644630 447.970337,35.538166 444.089325,37.633167 
	C444.877991,31.843264 441.995850,30.787558 437.616333,31.244432 
	C435.309723,31.485058 432.936279,31.486801 430.630280,31.243319 
	C426.373596,30.793869 424.724304,32.257717 424.776703,36.782452 
	C424.988678,55.100361 424.856354,73.422173 424.883942,91.742485 
	C424.885834,93.000687 425.156952,94.258476 425.352356,95.943176 
	C430.471863,95.943176 435.288605,95.711609 440.071899,96.012299 
	C444.334839,96.280273 445.548798,94.505371 445.492737,90.491203 
	C445.322998,78.335518 445.334564,66.174408 445.526642,54.019375 
	C445.559021,51.971554 446.335114,48.674446 447.641968,48.155228 
	C450.947876,46.841770 455.350800,45.403126 458.175140,46.632278 
	C460.652832,47.710545 462.825012,52.283955 462.975769,55.417336 
	C463.535461,67.048981 463.193359,78.723503 463.220306,90.381851 
	C463.224396,92.153114 463.389465,93.923988 463.467743,95.453323 
	C470.263214,95.453323 476.486176,95.453323 482.883423,95.453323 
	C482.883423,85.143074 482.883423,75.321869 482.883484,64.500916 
M367.120911,35.409809 
	C363.788208,39.743603 359.354797,43.626171 357.354370,48.506111 
	C353.320129,58.347408 353.501709,68.827087 357.143402,78.880730 
	C359.584778,85.620697 364.161102,90.929855 370.896637,93.862823 
	C377.649506,96.803368 384.594238,97.233559 392.016632,96.262291 
	C402.884644,94.840141 409.502411,88.918343 413.754974,79.363632 
	C417.441925,71.079605 416.886414,62.302235 415.462524,53.960781 
	C414.150391,46.274055 410.117706,39.172932 402.754303,35.084667 
	C391.161346,28.648106 379.473602,29.031824 367.120911,35.409809 
M279.090027,54.500042 
	C279.090027,51.340343 279.090027,48.180649 279.090027,45.020950 
	C279.090027,31.227854 279.085815,31.439442 265.387573,31.166862 
	C260.484314,31.069294 259.125336,32.695534 259.182495,37.409786 
	C259.398346,55.201180 259.263611,72.996773 259.278839,90.790771 
	C259.280212,92.397659 259.416260,94.004433 259.490753,95.632828 
	C266.244598,95.632828 272.483887,95.632828 279.090027,95.632828 
	C279.090027,82.048172 279.090027,68.774094 279.090027,54.500042 
M274.694458,6.826972 
	C273.954010,6.471458 273.184174,6.166085 272.478241,5.751724 
	C269.468109,3.984826 262.295563,6.358282 259.993683,9.357702 
	C257.228424,12.960976 257.151184,16.751373 260.011169,20.666849 
	C262.558319,24.154018 265.958923,24.286283 269.693817,24.287657 
	C273.716888,24.289137 277.426056,23.708906 279.025604,19.473499 
	C281.118103,13.932929 280.067291,10.720575 274.694458,6.826972 
z"/>
<path fill="#394A6D" opacity="1.000000" stroke="none" 
	d="
M102.884064,95.947884 
	C98.602104,95.947884 94.801064,95.947884 90.304726,95.947884 
	C90.304726,90.794014 90.307365,86.205276 90.304169,81.616539 
	C90.297676,72.287857 90.384087,62.957771 90.247314,53.630974 
	C90.149384,46.952354 89.055161,45.968540 82.865944,46.018238 
	C76.895470,46.066174 74.630096,48.154346 74.612328,53.877281 
	C74.569939,67.529182 74.598656,81.181305 74.598656,95.390068 
	C68.020729,95.390068 61.641979,95.390068 54.728580,95.390068 
	C54.617565,93.689102 54.388561,91.749748 54.381519,89.809586 
	C54.344658,79.648041 54.427876,69.485611 54.320175,59.325077 
	C54.292347,56.699913 53.633007,54.087765 53.427467,51.456848 
	C52.985386,45.798222 49.015617,45.797478 44.898838,46.043736 
	C41.004795,46.276661 37.823341,49.410782 37.798172,53.305531 
	C37.719589,65.465721 37.760098,77.626678 37.754711,89.787338 
	C37.753918,91.584053 37.754601,93.380768 37.754601,95.560455 
	C31.108717,95.560455 24.881865,95.560455 18.323114,95.560455 
	C18.202528,94.603836 17.980818,93.660095 17.979738,92.716103 
	C17.958229,73.892036 18.037554,55.067390 17.899426,36.244305 
	C17.870718,32.332436 19.138025,30.598036 23.117428,31.266085 
	C23.603481,31.347681 24.115398,31.265268 24.614775,31.278992 
	C29.914288,31.424604 36.187279,29.181778 37.965073,37.728531 
	C43.464733,32.855118 48.985367,30.655867 55.693081,30.615784 
	C62.689682,30.573977 67.666801,33.313103 71.575111,39.113453 
	C73.535492,37.517139 75.396263,35.991333 77.268295,34.479469 
	C83.908783,29.116554 100.701828,28.331362 105.893730,37.360416 
	C108.344620,41.622658 110.102615,46.854603 110.310425,51.726681 
	C110.899063,65.527534 110.535561,79.369446 110.506363,93.195091 
	C110.504684,93.987892 110.139771,94.779922 109.851067,95.947884 
	C107.655426,95.947884 105.510208,95.947884 102.884064,95.947884 
z"/>
<path fill="#344569" opacity="1.000000" stroke="none" 
	d="
M213.798767,30.794510 
	C218.283188,32.209438 222.312119,33.612446 226.733658,35.152164 
	C226.733658,25.267845 226.733658,15.520067 226.733658,5.302772 
	C233.301575,5.302772 239.499924,5.302772 246.050598,5.302772 
	C246.050598,35.273514 246.050598,65.296776 246.050598,95.627541 
	C240.535355,95.627541 235.102310,95.627541 229.230133,95.627541 
	C228.983597,94.040955 228.719452,92.341194 228.523407,91.079552 
	C223.960831,92.840118 219.587967,94.731537 215.081406,96.217316 
	C208.743942,98.306725 203.256195,95.908691 198.185547,92.299469 
	C191.750961,87.719429 189.135498,80.695755 188.235062,73.494667 
	C187.093857,64.368179 186.628189,54.976795 190.156738,46.086487 
	C192.879410,39.226624 200.760117,29.192316 213.798767,30.794510 
M207.177063,72.435081 
	C207.969147,74.040619 208.761246,75.646149 209.746063,77.656303 
	C209.746063,77.656303 209.953156,78.053764 209.950134,78.672852 
	C210.548019,79.172913 211.145905,79.672966 212.444031,80.665283 
	C213.590302,80.841919 214.731125,81.075684 215.883759,81.185806 
	C222.724289,81.839325 227.716156,79.771858 227.068848,70.975067 
	C226.656189,65.367622 227.041550,59.704670 226.970886,54.067833 
	C226.915955,49.687473 223.447617,46.196388 219.056564,46.016460 
	C217.403381,45.948719 215.742767,46.062508 213.347183,45.983177 
	C208.547974,48.259464 206.425125,51.952629 207.336334,58.165333 
	C207.364838,62.677475 207.393326,67.189621 207.177063,72.435081 
z"/>
<path fill="#37486C" opacity="1.000000" stroke="none" 
	d="
M482.883453,65.000786 
	C482.883423,75.321869 482.883423,85.143074 482.883423,95.453323 
	C476.486176,95.453323 470.263214,95.453323 463.467743,95.453323 
	C463.389465,93.923988 463.224396,92.153114 463.220306,90.381851 
	C463.193359,78.723503 463.535461,67.048981 462.975769,55.417336 
	C462.825012,52.283955 460.652832,47.710545 458.175140,46.632278 
	C455.350800,45.403126 450.947876,46.841770 447.641968,48.155228 
	C446.335114,48.674446 445.559021,51.971554 445.526642,54.019375 
	C445.334564,66.174408 445.322998,78.335518 445.492737,90.491203 
	C445.548798,94.505371 444.334839,96.280273 440.071899,96.012299 
	C435.288605,95.711609 430.471863,95.943176 425.352356,95.943176 
	C425.156952,94.258476 424.885834,93.000687 424.883942,91.742485 
	C424.856354,73.422173 424.988678,55.100361 424.776703,36.782452 
	C424.724304,32.257717 426.373596,30.793869 430.630280,31.243319 
	C432.936279,31.486801 435.309723,31.485058 437.616333,31.244432 
	C441.995850,30.787558 444.877991,31.843264 444.089325,37.633167 
	C447.970337,35.538166 451.264618,33.644630 454.658386,31.950533 
	C463.282990,27.645390 476.993225,31.823830 480.357758,40.598255 
	C482.294098,45.647945 482.215393,51.498295 482.836548,57.011578 
	C483.114502,59.478474 482.883514,62.002705 482.883453,65.000786 
z"/>
<path fill="#36476B" opacity="1.000000" stroke="none" 
	d="
M291.844177,45.849113 
	C292.719452,38.904083 298.220642,35.492462 303.504761,33.419273 
	C314.167236,29.235905 325.186462,28.862736 335.656158,34.935150 
	C343.458221,39.460339 345.024628,47.095222 345.366425,55.040039 
	C345.802307,65.172554 345.541534,75.333344 345.828979,85.474922 
	C345.920746,88.712776 346.801971,91.928253 347.442932,95.904373 
	C341.685577,95.904373 335.767975,96.130692 329.891022,95.742073 
	C328.457367,95.647270 327.157135,93.534615 325.880157,92.423340 
	C322.120300,93.635208 318.127930,95.346107 313.960083,96.187279 
	C300.525940,98.898605 287.693390,89.791046 289.562592,75.632339 
	C290.823486,66.081268 295.194702,60.629326 304.705231,58.904980 
	C311.258118,57.716888 317.889221,56.959995 324.885071,55.952843 
	C325.082855,52.571049 326.259796,48.684048 321.983215,45.859409 
	C318.095551,43.291679 314.800537,43.583538 311.235718,47.419907 
	C306.500214,51.953396 301.182129,49.381298 296.394073,50.133362 
	C292.941650,50.675644 291.609589,49.136715 291.844177,45.849113 
M319.729218,67.445290 
	C317.458984,67.807312 314.956207,67.683571 312.968140,68.635117 
	C309.137115,70.468773 308.188049,74.268547 309.252502,77.946716 
	C309.808533,79.867836 311.965057,82.130341 313.858337,82.693466 
	C317.881195,83.890038 321.879944,82.539322 324.347565,79.047401 
	C327.408478,74.715942 324.947021,67.787468 319.729218,67.445290 
z"/>
<path fill="#37486B" opacity="1.000000" stroke="none" 
	d="
M120.681923,67.507782 
	C120.692436,65.109566 120.702942,62.711346 120.988968,59.713058 
	C121.692024,56.680588 122.119553,54.248188 122.547089,51.815788 
	C122.630585,51.411007 122.714081,51.006226 123.155624,50.144043 
	C123.938759,48.422253 124.363853,47.157867 124.788956,45.893486 
	C133.175858,27.930925 158.973816,26.828680 170.986252,36.903389 
	C177.219681,42.131290 179.437164,49.113003 180.680405,56.501736 
	C181.380936,60.665142 180.806656,65.043053 180.806656,69.997925 
	C174.001373,69.997925 167.558304,69.997925 161.115234,69.997925 
	C154.809219,69.997925 148.503220,69.997925 142.216873,69.997925 
	C142.046310,75.187698 145.544449,80.233810 149.883469,80.782623 
	C155.951141,81.550079 162.084045,82.232918 167.433197,77.933029 
	C169.282059,76.446831 171.017136,76.249512 172.704529,78.795616 
	C174.382324,81.327271 176.794113,83.372490 179.092819,85.856659 
	C173.777954,92.217171 167.279312,95.259689 159.057831,96.355843 
	C148.329254,97.786270 138.928986,95.926140 130.781326,88.854034 
	C128.513412,86.885498 126.883095,84.182396 124.895569,81.127716 
	C124.213081,79.635963 123.595299,78.832787 122.977509,78.029617 
	C122.911263,77.612831 122.845024,77.196053 122.780205,76.085449 
	C122.081734,72.763680 121.381828,70.135727 120.681923,67.507782 
M158.186813,57.352863 
	C162.416901,57.555866 162.239929,54.836056 161.423279,52.106602 
	C160.056473,47.538361 154.010880,44.819256 148.522720,46.087337 
	C144.297577,47.063595 141.538330,52.014374 142.555023,57.364132 
	C147.397202,57.364132 152.327133,57.364132 158.186813,57.352863 
z"/>
<path fill="#36486B" opacity="1.000000" stroke="none" 
	d="
M550.880249,69.874344 
	C538.417358,69.874344 525.954468,69.874344 513.477661,69.874344 
	C513.689636,76.278175 517.292725,80.499100 522.820740,81.009926 
	C528.099976,81.497749 533.241272,81.680573 538.006836,78.186050 
	C539.286865,77.247452 542.742188,77.917847 544.321655,79.061386 
	C546.729980,80.805008 548.374390,83.603737 550.375244,85.992775 
	C545.006775,92.122215 538.793213,95.193977 530.873169,96.321564 
	C517.163452,98.273438 506.051147,95.011948 497.775482,83.561020 
	C492.268860,75.941605 491.162445,67.201439 492.400513,58.353447 
	C493.785156,48.457752 497.632507,39.656521 507.117523,34.430477 
	C515.500366,29.811697 524.335632,29.235973 533.047546,32.310081 
	C537.679077,33.944397 541.611023,37.561569 545.927368,40.955498 
	C546.696350,42.380444 547.396545,43.133602 548.096802,43.886757 
	C548.096802,43.886757 548.010986,43.944939 548.004944,44.296490 
	C548.799927,45.900944 549.600891,47.153843 550.401917,48.406746 
	C550.434387,48.767822 550.466797,49.128899 550.381226,50.072395 
	C550.468811,57.061329 550.674500,63.467838 550.880249,69.874344 
M520.057129,46.069321 
	C515.438782,48.035156 512.990723,51.402740 513.098267,56.906227 
	C519.778442,56.906227 526.262573,56.906227 532.713379,56.906227 
	C533.245361,48.826958 529.995728,45.962940 520.057129,46.069321 
z"/>
<path fill="#36486B" opacity="1.000000" stroke="none" 
	d="
M367.489014,35.293671 
	C379.473602,29.031824 391.161346,28.648106 402.754303,35.084667 
	C410.117706,39.172932 414.150391,46.274055 415.462524,53.960781 
	C416.886414,62.302235 417.441925,71.079605 413.754974,79.363632 
	C409.502411,88.918343 402.884644,94.840141 392.016632,96.262291 
	C384.594238,97.233559 377.649506,96.803368 370.896637,93.862823 
	C364.161102,90.929855 359.584778,85.620697 357.143402,78.880730 
	C353.501709,68.827087 353.320129,58.347408 357.354370,48.506111 
	C359.354797,43.626171 363.788208,39.743603 367.489014,35.293671 
M395.773773,54.263969 
	C395.290924,53.417267 394.716248,52.609314 394.339966,51.717636 
	C391.696869,45.454163 383.841583,43.790333 378.846649,48.461647 
	C372.974091,53.953690 372.532318,71.879601 378.104279,78.582954 
	C381.974304,83.238831 392.509125,82.246399 393.893494,76.475807 
	C395.545532,69.589401 395.341644,62.257751 395.773773,54.263969 
z"/>
<path fill="#38496D" opacity="1.000000" stroke="none" 
	d="
M279.090027,55.000031 
	C279.090027,68.774094 279.090027,82.048172 279.090027,95.632828 
	C272.483887,95.632828 266.244598,95.632828 259.490753,95.632828 
	C259.416260,94.004433 259.280212,92.397659 259.278839,90.790771 
	C259.263611,72.996773 259.398346,55.201180 259.182495,37.409786 
	C259.125336,32.695534 260.484314,31.069294 265.387573,31.166862 
	C279.085815,31.439442 279.090027,31.227854 279.090027,45.020950 
	C279.090027,48.180649 279.090027,51.340343 279.090027,55.000031 
z"/>
<path fill="#3A4B6E" opacity="1.000000" stroke="none" 
	d="
M275.077362,6.911367 
	C280.067291,10.720575 281.118103,13.932929 279.025604,19.473499 
	C277.426056,23.708906 273.716888,24.289137 269.693817,24.287657 
	C265.958923,24.286283 262.558319,24.154018 260.011169,20.666849 
	C257.151184,16.751373 257.228424,12.960976 259.993683,9.357702 
	C262.295563,6.358282 269.468109,3.984826 272.478241,5.751724 
	C273.184174,6.166085 273.954010,6.471458 275.077362,6.911367 
z"/>
<path fill="#8993A8" opacity="1.000000" stroke="none" 
	d="
M291.474548,45.952286 
	C291.609589,49.136715 292.941650,50.675644 296.394073,50.133362 
	C301.182129,49.381298 306.500214,51.953396 311.123779,47.780258 
	C311.891174,51.257561 309.855103,52.575924 306.779755,52.657513 
	C302.624603,52.767746 298.457611,52.831409 294.308075,52.642757 
	C289.859650,52.440517 289.151062,50.822823 291.474548,45.952286 
z"/>
<path fill="#A4ABBC" opacity="1.000000" stroke="none" 
	d="
M551.306274,69.907547 
	C550.674500,63.467838 550.468811,57.061329 550.444458,50.337009 
	C551.387878,51.735378 552.802979,53.457237 552.788086,55.166656 
	C552.745239,60.094044 552.125549,65.016411 551.306274,69.907547 
z"/>
<path fill="#B4BAC8" opacity="1.000000" stroke="none" 
	d="
M120.469696,67.910248 
	C121.381828,70.135727 122.081734,72.763680 122.676491,75.786285 
	C121.800056,73.558205 121.028770,70.935463 120.469696,67.910248 
z"/>
<path fill="#B4BAC8" opacity="1.000000" stroke="none" 
	d="
M122.211365,51.945541 
	C122.119553,54.248188 121.692024,56.680588 120.975883,59.314415 
	C121.083397,57.035660 121.479515,54.555481 122.211365,51.945541 
z"/>
<path fill="#A4ABBC" opacity="1.000000" stroke="none" 
	d="
M550.531982,48.063980 
	C549.600891,47.153843 548.799927,45.900944 548.054810,44.282677 
	C548.961182,45.185284 549.811584,46.453251 550.531982,48.063980 
z"/>
<path fill="#B4BAC8" opacity="1.000000" stroke="none" 
	d="
M124.478767,45.947029 
	C124.363853,47.157867 123.938759,48.422253 123.194336,49.835876 
	C123.306206,48.656933 123.737396,47.328754 124.478767,45.947029 
z"/>
<path fill="#A4ABBC" opacity="1.000000" stroke="none" 
	d="
M548.146118,43.543846 
	C547.396545,43.133602 546.696350,42.380444 546.046936,41.278641 
	C546.796997,41.686974 547.496216,42.443951 548.146118,43.543846 
z"/>
<path fill="#B4BAC8" opacity="1.000000" stroke="none" 
	d="
M122.910858,78.371094 
	C123.595299,78.832787 124.213081,79.635963 124.775864,80.786758 
	C124.095299,80.327110 123.469749,79.519836 122.910858,78.371094 
z"/>
<path fill="#F6F7F8" opacity="1.000000" stroke="none" 
	d="
M209.953156,78.053764 
	C209.953156,78.053764 209.746063,77.656303 209.780899,77.105896 
	C209.017776,74.937584 208.219803,73.319672 207.421829,71.701759 
	C207.393326,67.189621 207.364838,62.677475 207.659958,57.557575 
	C210.017563,53.331059 212.051559,49.712299 214.085541,46.093540 
	C215.742767,46.062508 217.403381,45.948719 219.056564,46.016460 
	C223.447617,46.196388 226.915955,49.687473 226.970886,54.067833 
	C227.041550,59.704670 226.656189,65.367622 227.068848,70.975067 
	C227.716156,79.771858 222.724289,81.839325 215.883759,81.185806 
	C214.731125,81.075684 213.590302,80.841919 212.169693,80.084572 
	C211.247955,79.020500 210.600555,78.537132 209.953156,78.053764 
z"/>
<path fill="#8D97AB" opacity="1.000000" stroke="none" 
	d="
M213.716370,46.038361 
	C212.051559,49.712299 210.017563,53.331059 207.677582,57.110245 
	C206.425125,51.952629 208.547974,48.259464 213.716370,46.038361 
z"/>
<path fill="#8D97AB" opacity="1.000000" stroke="none" 
	d="
M207.299438,72.068420 
	C208.219803,73.319672 209.017776,74.937584 209.684540,76.903595 
	C208.761246,75.646149 207.969147,74.040619 207.299438,72.068420 
z"/>
<path fill="#8D97AB" opacity="1.000000" stroke="none" 
	d="
M209.951645,78.363312 
	C210.600555,78.537132 211.247955,79.020500 211.819580,79.838440 
	C211.145905,79.672966 210.548019,79.172913 209.951645,78.363312 
z"/>
<path fill="#F0F2F4" opacity="1.000000" stroke="none" 
	d="
M320.158142,67.440689 
	C324.947021,67.787468 327.408478,74.715942 324.347565,79.047401 
	C321.879944,82.539322 317.881195,83.890038 313.858337,82.693466 
	C311.965057,82.130341 309.808533,79.867836 309.252502,77.946716 
	C308.188049,74.268547 309.137115,70.468773 312.968140,68.635117 
	C314.956207,67.683571 317.458984,67.807312 320.158142,67.440689 
z"/>
<path fill="#F0F2F4" opacity="1.000000" stroke="none" 
	d="
M157.721939,57.358498 
	C152.327133,57.364132 147.397202,57.364132 142.555023,57.364132 
	C141.538330,52.014374 144.297577,47.063595 148.522720,46.087337 
	C154.010880,44.819256 160.056473,47.538361 161.423279,52.106602 
	C162.239929,54.836056 162.416901,57.555866 157.721939,57.358498 
z"/>
<path fill="#F0F2F4" opacity="1.000000" stroke="none" 
	d="
M520.478394,46.038086 
	C529.995728,45.962940 533.245361,48.826958 532.713379,56.906227 
	C526.262573,56.906227 519.778442,56.906227 513.098267,56.906227 
	C512.990723,51.402740 515.438782,48.035156 520.478394,46.038086 
z"/>
<path fill="#F5F6F8" opacity="1.000000" stroke="none" 
	d="
M395.857788,54.691475 
	C395.341644,62.257751 395.545532,69.589401 393.893494,76.475807 
	C392.509125,82.246399 381.974304,83.238831 378.104279,78.582954 
	C372.532318,71.879601 372.974091,53.953690 378.846649,48.461647 
	C383.841583,43.790333 391.696869,45.454163 394.339966,51.717636 
	C394.716248,52.609314 395.290924,53.417267 395.857788,54.691475 
z"/>
</svg>