<svg version="1.1" id="Layer_1" xmlns="http://www.w3.org/2000/svg" xmlns:xlink="http://www.w3.org/1999/xlink" x="0px" y="0px"
	 width="100%" viewBox="0 0 1139 1085" enable-background="new 0 0 1139 1085" xml:space="preserve">
<path fill="#FFFFFF" opacity="1.000000" stroke="none" 
	d="
M1135.143555,1086.000000 
	C756.788269,1086.000000 378.959381,1086.000000 1.065249,1086.000000 
	C1.065249,724.381104 1.065249,362.762177 1.065249,1.071619 
	C380.614441,1.071619 760.228943,1.071619 1139.921631,1.071619 
	C1139.921631,362.610229 1139.921631,724.220459 1139.921631,1086.000000 
	C1138.557861,1086.000000 1137.113770,1086.000000 1135.143555,1086.000000 
M905.602661,872.717163 
	C914.740112,862.650879 924.120667,852.793091 932.967468,842.477478 
	C955.420044,816.296997 973.982849,787.477051 989.524902,756.743774 
	C994.562439,746.782654 998.612854,736.317078 1002.993652,726.030579 
	C1007.245239,716.047424 1011.790405,706.157654 1015.420715,695.947449 
	C1025.770508,666.839172 1032.384644,636.788940 1036.906128,606.265625 
	C1037.515747,602.151123 1037.645874,597.965576 1038.047729,593.227661 
	C1035.800415,594.018738 1034.374634,594.429077 1033.022461,595.010620 
	C1018.239746,601.368469 1003.502197,607.832458 988.686035,614.111084 
	C968.061096,622.851318 947.368835,631.432556 926.728149,640.135742 
	C919.118530,643.344299 911.573364,646.705811 903.255127,650.076355 
	C891.108704,655.024536 878.978271,660.012695 866.812561,664.912781 
	C838.631592,676.263611 810.471680,687.668945 782.200256,698.790405 
	C778.068542,700.415833 776.895142,702.489319 776.902039,706.805115 
	C777.037170,791.303650 777.002502,875.802551 777.002502,960.301331 
	C777.002502,961.907898 777.002441,963.514526 777.002441,965.716431 
	C779.103149,964.781372 780.657898,964.250488 782.053040,963.443787 
	C798.009277,954.217590 814.505188,945.782166 829.730164,935.471680 
	C846.989807,923.783264 863.417603,910.788696 879.595764,897.611572 
	C888.702820,890.193909 896.577332,881.262939 905.602661,872.717163 
M402.217987,841.011047 
	C401.415222,841.201111 400.588348,841.321960 399.813232,841.591492 
	C378.331390,849.062317 356.883881,856.633057 335.369751,864.009460 
	C310.077606,872.681213 284.726471,881.180969 259.408783,889.778381 
	C257.947296,890.274719 256.556152,890.978271 254.312988,891.934753 
	C262.830017,899.008362 270.509918,905.512390 278.322449,911.852966 
	C307.624390,935.634216 339.754364,954.882324 373.863983,970.857361 
	C382.708771,974.999756 391.947174,978.301636 401.461304,982.537537 
	C423.799530,991.079712 446.529633,998.502502 470.045776,1002.846069 
	C490.328552,1006.592407 510.841248,1009.123657 531.287170,1011.939026 
	C537.342102,1012.772766 543.510559,1012.897583 549.635071,1013.085815 
	C562.084351,1013.468384 574.595032,1014.542847 586.978577,1013.746948 
	C605.594482,1012.550476 624.104492,1009.780823 642.701050,1008.155090 
	C647.682007,1007.719604 649.106445,1006.139587 649.098511,1001.237000 
	C648.967041,919.786072 649.004883,838.334900 649.004883,756.883789 
	C649.004883,755.119629 649.004883,753.355469 649.004883,751.039490 
	C646.225891,751.870483 644.151489,752.363220 642.169373,753.103149 
	C620.559448,761.169617 599.019592,769.427124 577.353210,777.338379 
	C528.870117,795.041565 480.319855,812.560486 431.812134,830.196228 
	C422.172882,833.700684 412.601318,837.391418 402.217987,841.011047 
z"/>
<path fill="#E4EEF7" opacity="1.000000" stroke="none" 
	d="
M402.998505,840.996216 
	C412.601318,837.391418 422.172882,833.700684 431.812134,830.196228 
	C480.319855,812.560486 528.870117,795.041565 577.353210,777.338379 
	C599.019592,769.427124 620.559448,761.169617 642.169373,753.103149 
	C644.151489,752.363220 646.225891,751.870483 649.004883,751.039490 
	C649.004883,753.355469 649.004883,755.119629 649.004883,756.883789 
	C649.004883,838.334900 648.967041,919.786072 649.098511,1001.237000 
	C649.106445,1006.139587 647.682007,1007.719604 642.701050,1008.155090 
	C624.104492,1009.780823 605.594482,1012.550476 586.978577,1013.746948 
	C574.595032,1014.542847 562.084351,1013.468384 549.635071,1013.085815 
	C543.510559,1012.897583 537.342102,1012.772766 531.287170,1011.939026 
	C510.841248,1009.123657 490.328552,1006.592407 470.045776,1002.846069 
	C446.529633,998.502502 423.799530,991.079712 401.221436,981.841553 
	C400.654358,978.198120 400.047241,975.251038 400.042389,972.302979 
	C399.978607,933.722290 399.990234,895.141357 400.011230,856.560547 
	C400.014160,851.196106 399.127777,845.631165 402.998505,840.996216 
z"/>
<path fill="#E9F1F8" opacity="1.000000" stroke="none" 
	d="
M905.006958,873.013672 
	C896.577332,881.262939 888.702820,890.193909 879.595764,897.611572 
	C863.417603,910.788696 846.989807,923.783264 829.730164,935.471680 
	C814.505188,945.782166 798.009277,954.217590 782.053040,963.443787 
	C780.657898,964.250488 779.103149,964.781372 777.002441,965.716431 
	C777.002441,963.514526 777.002502,961.907898 777.002502,960.301331 
	C777.002502,875.802551 777.037170,791.303650 776.902039,706.805115 
	C776.895142,702.489319 778.068542,700.415833 782.200256,698.790405 
	C810.471680,687.668945 838.631592,676.263611 866.812561,664.912781 
	C878.978271,660.012695 891.108704,655.024536 903.627563,650.505859 
	C904.000000,722.693115 903.990784,794.450806 904.042358,866.208496 
	C904.043945,868.477051 904.671326,870.745239 905.006958,873.013672 
z"/>
<path fill="#E4EEF7" opacity="1.000000" stroke="none" 
	d="
M905.304810,872.865356 
	C904.671326,870.745239 904.043945,868.477051 904.042358,866.208496 
	C903.990784,794.450806 904.000000,722.693115 903.999390,650.466492 
	C911.573364,646.705811 919.118530,643.344299 926.728149,640.135742 
	C947.368835,631.432556 968.061096,622.851318 988.686035,614.111084 
	C1003.502197,607.832458 1018.239746,601.368469 1033.022461,595.010620 
	C1034.374634,594.429077 1035.800415,594.018738 1038.047729,593.227661 
	C1037.645874,597.965576 1037.515747,602.151123 1036.906128,606.265625 
	C1032.384644,636.788940 1025.770508,666.839172 1015.420715,695.947449 
	C1011.790405,706.157654 1007.245239,716.047424 1002.993652,726.030579 
	C998.612854,736.317078 994.562439,746.782654 989.524902,756.743774 
	C973.982849,787.477051 955.420044,816.296997 932.967468,842.477478 
	C924.120667,852.793091 914.740112,862.650879 905.304810,872.865356 
z"/>
<path fill="#E9F1F8" opacity="1.000000" stroke="none" 
	d="
M402.608246,841.003662 
	C399.127777,845.631165 400.014160,851.196106 400.011230,856.560547 
	C399.990234,895.141357 399.978607,933.722290 400.042389,972.302979 
	C400.047241,975.251038 400.654358,978.198120 400.993164,981.567627 
	C391.947174,978.301636 382.708771,974.999756 373.863983,970.857361 
	C339.754364,954.882324 307.624390,935.634216 278.322449,911.852966 
	C270.509918,905.512390 262.830017,899.008362 254.312988,891.934753 
	C256.556152,890.978271 257.947296,890.274719 259.408783,889.778381 
	C284.726471,881.180969 310.077606,872.681213 335.369751,864.009460 
	C356.883881,856.633057 378.331390,849.062317 399.813232,841.591492 
	C400.588348,841.321960 401.415222,841.201111 402.608246,841.003662 
z"/>
</svg>